<svg xmlns="http://www.w3.org/2000/svg" width="1317.17" height="1044.92" viewBox="0 0 1317.17 1044.92"><g id="Layer_2" data-name="Layer 2"><g id="Layer_1-2" data-name="Layer 1"><path d="M374.41,324.5l82.46-31.42L314.55,277.67,0,433.3l136.93-15.42,57.61,15.87q-28.44,111.48-56.87,223L292,460.53l159.82,38.16L347.18,372.54Zm-55.22,4.19c-.3,14.47-5.27,21.46-8.49,37.27a113.58,113.58,0,0,0-2,14.36c-2.75-2.32-6.46-5.4-11-8.92-5.25-4.11-7.88-6.16-10.69-8-10.12-6.74-13.64-6.27-20.4-12.37-3.62-3.26-5.87-5.35-6.89-9-1.59-5.69.28-13.76,6.74-17.65,6.71-4.05,16-2.16,21.1,4.78a21.16,21.16,0,0,1,6-14.06c1.6-1.57,5.37-5.29,11.08-5.24,7,.06,11.15,5.71,11.67,6.43C318.74,319.62,319.3,323.4,319.19,328.69Z"/><path d="M774.41,221.25l83.06-14.37L752.26,155.56l-185.7,42.35-118.15,98.2,93.2-11.31,38.11,14.46-80.9,234.65Q584.76,437.43,670.71,341l166,89.48q-49.55-82.8-99.11-165.6Zm-55.82,15.21c-2.32,5.71-5.84,14.51-10,25.59-2.8-2.89-7.34-7.48-13.17-13s-8.86-8.33-13-12c-10.18-9-12.52-10.15-14.17-14.56a18.08,18.08,0,0,1,0-13.17c.34-.81,3.31-7.65,10-9.38,6.84-1.78,15.13,2.46,19.15,10.77a15.57,15.57,0,0,1,12.77-16,14.61,14.61,0,0,1,10.18,1.2,14.18,14.18,0,0,1,5.79,6.58C729.82,210.43,725.48,219.59,718.59,236.46Z"/><path d="M1317.17,75.7,832.52,209.58,887.84,207,988.55,222.9,878.81,451.6q92.3-82.39,184.57-164.81l140.66,94q-29.22-79.9-58.46-159.82Zm-178.52,97.89c-.93,3.51-2.13,4.76-8.61,13.62-9.68,13.24-11.83,17.06-13.09,19.52a70.77,70.77,0,0,0-5.09,12.87c-1.36-2.39-3.32-5.65-5.88-9.39s-4.66-6.43-7.66-10.13c-10.09-12.46-10.21-11.3-13.54-16.17-5.09-7.42-8.64-12.61-7.64-19.08.75-4.82,4-10.48,9.58-12.42,7-2.45,16.14,1.53,20.65,10.33a24.73,24.73,0,0,1,7.63-8.38c2.5-1.7,5.76-3.92,10.18-3.74,7.23.29,11.51,6.8,11.94,7.48C1141.09,164.36,1139.27,171.25,1138.65,173.59Z"/><circle cx="219.98" cy="237.86" r="59.56"/><circle cx="654.73" cy="101.38" r="59.56"/><circle cx="1085.19" cy="59.56" r="59.56"/><path d="M130.29,745.86c-1.89.07-2.42,1.54-4.91,3.13a15.22,15.22,0,0,1-6.82,2.2c-1.87.11-4.8.3-5.94-1.5-1-1.61-.14-4.05.93-5.42,1.54-2,4-2.37,6.27-2.76a23.59,23.59,0,0,1,5.84-.14c2.42.24,2.84.66,3.84.28,1.72-.65,1.44-2.25,3.55-4.63a13.08,13.08,0,0,1,5-3.41,30.91,30.91,0,0,1,5.28-.89c2.74-.36,3.27-.36,5.24-.66a45,45,0,0,0,4.58-.84c2.82-.73,3.88-1.7,7.86-3.93,3.58-2,3-1.38,7.67-3.88,3.58-1.92,3.73-2.19,8.09-4.58,6.27-3.44,7.69-3.84,9.17-4a15,15,0,0,1,6.17.23c2.55.68,3.2,1.69,4.86,1.36s3-1.85,4.12-3.09a21.09,21.09,0,0,0,1.68-2.38c1.91-2.55,5.77-1.57,11.13-2.16a32.71,32.71,0,0,0,13.89-4.49,38.34,38.34,0,0,1,6.45-3.64,23.54,23.54,0,0,1,5-1.64c3.21-.65,3.64,0,5.71-.7,2.3-.83,2-1.79,4.95-3.27a29.19,29.19,0,0,1,5.61-1.87c2.44-.68,2.62-.61,5.2-1.31a26.92,26.92,0,0,0,5.93-2c1.83-1,3.6-1.91,4.35-3.78s-.29-2.5.38-4.26c.6-1.58,2.11-2.43,5.09-4.07a37.13,37.13,0,0,1,6.46-2.76c3.1-1,2.77-.42,6.17-1.45,3.19-1,4.61-1.78,5.57-1a2.07,2.07,0,0,1,.56,2.29c-.42.91-1.66,1-3.28,1.45-2.54.67-2,1.09-5.19,2.19s-4.46.91-7.48,2.34c-2.46,1.17-2.55,1.74-2.52,2,.07.74,1.67,1.2,2.66,1.35a9.13,9.13,0,0,0,5.05-.93c3.88-1.56,3.11-.38,10.29-2.62,1.29-.4.5-.19,6.5-2.25,3.4-1.16,5.14-1.76,7.48-2.52,2.06-.67,4.29-1.39,7.2-2.25,2.58-.75,4.48-1.24,5.24-1.45,12.07-3.19,21.47-6.4,21.47-6.4,8.68-3,10.72-4.29,14.21-4.4a18,18,0,0,0,5.61-.93,26,26,0,0,0,4.12-2c2.49-1.35,3.75-2,4.39-3.08.93-1.5.57-2.65,1.41-3s1.48.86,3.36,1.41,3.37.06,5.9-.66c1.65-.47,1.5-.62,3.46-1.21a44,44,0,0,1,5.05-1.13c4.53-.84,4.11-.59,5.33-.93,2-.56,2-.91,6-2.71,3.25-1.47,4.88-2.21,6.27-2.34,2.35-.23,2.91.48,5.61.09a17.06,17.06,0,0,0,4.12-1.21c2.89-1.18,3.47-2.09,6-3.18a31.36,31.36,0,0,1,5-1.41c9.18-2.35,10.51-2.81,11.69-3.27s1.91-.81,4.44-1.78c2.1-.8,2.76-1,4.17-1.63a26,26,0,0,0,3.64-1.83c2.47-1.55,2.53-2.39,4.07-2.8,1.25-.34,1.61.09,3.84.28a33.7,33.7,0,0,0,6.31-.47,43.4,43.4,0,0,0,6.13-1,35.58,35.58,0,0,0,5.56-2.25c2.49-1.08,6.24-1.77,9.7-2.51,3.09-.65,1.64-.59,15.21-4.8,4.7-1.46,5.94-1.8,7.23-2.12,4.33-1.08,5-.91,8.11-1.87,4-1.24,3.56-1.75,7.48-3,4.64-1.47,7.34-1.43,7.67-2.87.24-1-.83-2.54-1.37-3.31-.86-1.2-1.42-1.36-1.37-1.87.15-1.45,5-2.13,5.42-2.18,3-.4,4.06.21,5.61-.81,1.14-.74,1-1.32,2.19-1.93,1-.51,1.7-.4,4.24-.44a23.42,23.42,0,0,0,4.42-.25c1.22-.34,1.06-.62,4.43-2.43a13.22,13.22,0,0,1,3.24-1.43c1.24-.31,2.54-.63,3.56,0,1.56,1,1.23,3.42,1.93,3.49s.86-2.47,2.62-4.37c.7-.75,1.49-1.23,6-2.49,3.34-.93,6.18-1.57,9-2.18,4.27-.94,4-.83,6-1.31,1.84-.44,4.62-1.11,8.11-2.18,3.87-1.2,3.9-1.44,6-1.88,2.79-.57,3.11-.21,6.24-.74a45.24,45.24,0,0,0,6.92-1.87c2.11-.69,4.28-1.51,8.54-3.12,6.92-2.62,8.22-3.12,10.54-3.74,2.14-.58,3.19-.74,6-1.31,5.3-1.08,8.11-1.85,13.59-3.18,21.48-5.23,25.42-5,38.53-8.86a96.64,96.64,0,0,1,12.54-3.11c4.2-.72,5.55-.62,11-1.56,2.23-.39,5.85-1,10.29-2.18,5.9-1.55,6.48-2.26,12.6-4,2.37-.67,5.56-1.37,11.84-2.74,11-2.4,10.25-2,14.34-3,6.85-1.74,7.18-2.36,15.22-4.43,5.71-1.48,9.93-2.3,11-2.49,6.63-1.28,11.06-1.67,14.34-2.06,12.2-1.47,12.37-3.41,32.67-7.55,4.72-1,9.51-1.83,17.4-3.27,4.77-.87,9.53-1.78,14.31-2.62,7.28-1.27,7.4-1.2,8.89-1.68,5.82-1.9,7.76-4.24,10.94-3.28,2.13.65,2.49,2.09,5.24,2.53a8.72,8.72,0,0,0,4.86-.56c3.13-1.4,2.6-3.78,5.61-5.43.48-.26,1-.46,6.83-1.12,3.92-.44,6.36-.65,6.36-.65,9-.8,8-.59,10-.85a84.81,84.81,0,0,0,11-2.24c5-1.33,7.47-2,7.67-2.06,2.37-.8,3.27-1.26,4.81-1.08,2.53.31,3,1.93,5.11,2,1.91.08,2.82-1.19,5.33-2.72,1.76-1.07,3.77-1.69,7.79-2.93,1.6-.49,5.19-1.53,15.28-3.05,4.83-.73,4.86-.62,8.66-1.19,6.62-1,9-1.68,18.27-3.55,4.56-.92,10.31-2.07,17.46-3.24,7.38-1.21,7-.91,16-2.31,7.07-1.09,13.19-2,20.88-3.8,1.37-.31,2.15-.5,11.23-2.87,9.47-2.47,19.05-4.54,28.43-7.36,7.86-2.36,9.86-3.32,14.28-3.37a63.08,63.08,0,0,1,13,1.63l7.36,1.87c4.19,1.06,6.31,1.61,7.42,2.37,2.23,1.51,2.51,2.85,4.73,3.43a5.73,5.73,0,0,0,4.24-.38,9.26,9.26,0,0,0,.78-.61c1-.77,2.15-1.67,2.59-1.95,2.48-1.58,6.59.1,7.11.32,1.46.61,1,.79,3.37,2.12a37,37,0,0,0,6.17,2.62,16.64,16.64,0,0,0,3.62,1c2.55.27,3.2-.58,6.17-.5a7.5,7.5,0,0,1,4.3,1c.31.21,2.41,1.67,2.31,3.56s-2.08,2.24-1.94,3.8c.06.63.71,1.27,2,2.56,1.44,1.43,2.18,2.15,2.93,2.12,1.2-.05,2.16-1.41,2.56-2.37.9-2.18-.45-3.7.37-4.49,1-1,3.93.41,5.61,1.68.88.67,2.94,2.23,2.68,3.87-.21,1.35-1.78,1.29-2.37,3s.52,2.34.19,4.11a6.07,6.07,0,0,1-2.31,3.37c-2.67,2.44-4.68,5.53-7.23,8.11-8,8.07-7.18,7.76-9.85,10a44.53,44.53,0,0,1-8.29,5.62c-3,1.51-4.64,2.37-7.17,2.61-2.36.23-3.28-.29-5.55.32s-3,1.5-4.8,2.49c-3,1.65-5.23,1.7-8.67,2.24-5.28.84-5.09,1.55-13.34,3.62-4.74,1.19-3.88.72-20.77,4-5.56,1.08-8.71,1.72-12.78,3.31-1.34.52-4,1.61-7,3-5,2.35-4.81,2.66-6.85,3.31-3.49,1.09-4.09.2-10.11,1a59.8,59.8,0,0,0-8.41,1.69c-.81.22-3.35.85-8.42,2.12-1.81.45-3.21.77-4.49.06-1.57-.87-1.46-2.46-2.56-2.62-1.39-.2-2.07,2.3-5,3.68-1.93.91-2.51.85-2.75.75-1-.46-.68-1.88-1.74-2.62-1.32-.93-3.54.08-4.74.62-1.84.84-2.39,1.57-4.3,3-2.93,2.17-6,4.45-8.17,3.55-1.56-.64-2-2.64-2.75-2.43s-.38,2.58-1.37,3-1.71-1.31-4-2.37a9.48,9.48,0,0,0-5.36-.62c-2.18.44-2.05,1.42-4.68,2.49-2,.81-3.68.91-7,1.12-1.44.1-1.73,0-4.55.19-3.64.2-4.13.34-4.62.69-1.71,1.2-1,3.07-2.62,4.3-1.08.84-2.13.53-5.23.37-6.13-.31-5.84.69-9.79.13-3.79-.54-5.31-1.64-6.49-.63s-.42,2.35-1.93,3.93c-.27.28-1.54,1.62-3,1.44-1.66-.21-2-2.19-3.25-2.19-1.13,0-1.21,1.5-2.93,2.62a7.31,7.31,0,0,1-6.42.5c-1.78-.73-1.9-1.8-3.74-2.12-1-.17-2.64-.16-3.12.69s.59,1.75.06,3.12a1.88,1.88,0,0,1-.87,1.12c-1.24.54-2.66-1.69-5.42-2.93a11.78,11.78,0,0,0-4.68-.88c-3.43-.15-5.19.94-13,4.12-6.44,2.63-6.48,2.4-9.1,3.74-5,2.55-4.34,3.16-7.73,4.49-3.76,1.48-8.41,3.31-12.1,1.56-.85-.4-2.21-1.26-3.49-.75s-1.31,1.86-2.31,1.93-2.18-1.19-2.37-2.43c-.14-.93.37-1.24.13-1.68s-1.39-.9-7,.43a45.9,45.9,0,0,0-4.8,1.31c-5.43,1.93-8.57,1.58-18.45,3.81-12.24,2.76-11.18,4.13-16.47,4.24-2.54.05-5.42-.22-8,1.68-1.55,1.16-2.17,2.51-4.61,3.93a14.8,14.8,0,0,1-3.93,1.56c-3.32.85-4.68.14-11,.12-2.6,0-4.36.11-5.36.19a29.42,29.42,0,0,0-7,1.18c-2.43.82-2.11,1.21-3.87,1.69-3.48,1-4.43-.69-8.41-.31-1.62.15-1.46.42-7.61,2.3,0,0-1.21.38-5.11,1.5-8.4,2.42-44.42,10.37-56.74,13.22-26.79,6.2-22.89,7.14-37.29,9.48,0,0-15,2.43-32.17,6.48-3,.71-5.58,1.55-10.73,3.24-4.44,1.46-5.92,2.09-7.61,3.25-2.36,1.61-2.47,2.44-4.11,2.86-2.9.75-4.25-1.39-7.86-1.24-1.52.06-1.95.47-5.61,2a94.06,94.06,0,0,1-9.6,3.49,59.91,59.91,0,0,1-10.73,1.75c-5.63.62-6.63.31-9.85,1.25a45,45,0,0,0-6.61,2.61c-3.77,1.77-3.8,2.25-6.61,3.37a23,23,0,0,1-7.6,1.87c-3,.17-3.56-.48-5.86-.5-4.41,0-6.75,2.27-10.73,4.24-1.49.74-1.9.78-14.22,3.25-7.84,1.57-6.39,1.72-19.07,4.73-3.6.86-5.52,1.29-8.48,2.25-.8.26-3.06,1-9.73,3.74-6.86,2.81-6.45,2.82-8.86,3.74-5.29,2-9.66,3-18.2,4.74-5.69,1.19-5.3.92-11.1,2.12-5.34,1.1-10.15,2.1-15.84,3.74-7.55,2.18-7.59,2.89-20,6.86-3.82,1.23-8.25,2.59-10,3.12-3.92,1.2-5.64,1.7-7.11,2.12-3.56,1-5.33,1.51-7,1.87-3.92.85-4.78.68-7.23,1.62-1.53.58-1.08.61-4.37,2.12-4.71,2.17-6.32,2.44-7.48,1.75a6.63,6.63,0,0,1-1-1c-3.4-3.64-3.29-3.58-3.49-3.74-2.72-2.29-8.62-1.36-10.1,1.24-.08.14-.63,1.11-.25,1.75s1.26.63,5.11.62c2.14,0,2.61,0,3,.38.79.82.45,2.65-.25,3.86-1.2,2-3.62,2.6-5.61,3.12-5.68,1.48-11,3.95-16.59,5.86-3.7,1.28-3.37,1.24-6.73,2.37-8.33,2.81-7.29,2-11.6,3.62-3.61,1.35-4.9,2.12-7.36,2-1.92-.1-4.94-.77-5.24-2.24-.33-1.65,2.9-3.57,5.49-5.11a38.39,38.39,0,0,1,8.23-3.62c2.05-.64,4.06-1.36,6.11-2,1.86-.57,3.36-1,3.37-1.62,0-.82-2.68-.84-3.12-2.37-.27-.94.43-2,1.37-3.49s1.66-2,1.5-2.24c-.36-.62-3.74,1.89-6.86.74-1.25-.45-2.75-1.61-2.74-2.86,0-1.46,2.06-1.82,5.86-4.74,3.32-2.56,2.91-3.18,5.11-4.24a27.12,27.12,0,0,1,6.36-1.87c2-.36,3-.31,3.87-1.12s1.16-1.9,1.37-4c.54-5.34.89-8.81-1.12-10.1a3.68,3.68,0,0,0-3.74,0,3.83,3.83,0,0,0-1.5,2.37c-.73,2.93,1.46,5.26.75,5.86-.48.4-1.83-.32-2.62-1-1-.87-.9-1.49-2-2.87-.84-1.06-1.5-1.89-2.49-2.12-1.4-.33-1.86.88-4.24,1.49-2.64.68-4-.32-4.74.63s.39,2.22-.5,3.86a3.23,3.23,0,0,1-2.49,1.75c-.64,0-1.09-.28-3.49-2.37-2.12-1.84-2.08-1.88-2.37-2-1.28-.52-2.26.13-6.36,2-6,2.73-5.92,2.25-7.36,3.37s-2,1.86-3,1.74c-1.62-.18-1.88-2.43-3.37-2.62s-1.86,2-4.24,3.25c-1.4.71-2.08.34-8.86.12-3.84-.13-4.49,0-5.11.5-1.24,1.07-.66,2.41-2.24,5.36a7.44,7.44,0,0,1-2.25,3c-1.89,1.26-4.37.88-7,.49s-3.57-1-4.86-.25a5.1,5.1,0,0,0-1.75,1.88c-1,1.49-.94,2.38-1.5,3.61a7.6,7.6,0,0,1-3.74,3.74,6.87,6.87,0,0,1-7.48-2c-1.57-2-.71-4.22-2-4.74-.42-.17-.95-.11-4.73,2.24-3,1.85-3.3,2.22-4.24,2.25-1.82,0-2.13-1.26-4.12-1.25-1,0-2,.5-3.87,1.5-1.64.86-2.74,1.57-4,2.37-1.44.92-3.36,2.14-5.23,3.24-3.19,1.87-4.81,2.81-6.24,3-2.14.27-2.2-.54-5.36-.62a24.1,24.1,0,0,0-6.86,1,47.8,47.8,0,0,0-5.11,1.62c-2.9,1-3.8,1.48-6.11,2.37-5.27,2-7.91,3-11.1,3.61-2.15.4-4,.54-5.86,2-1.53,1.18-1.14,1.73-2.37,2.62-2.65,1.91-4.94-.24-9.85,1.24a19.32,19.32,0,0,0-3.74,1.63,32.4,32.4,0,0,0-4,2.74c-2.62,1.77-5.41,2-8,2.12-5.5.35-8.5-1.54-10.35.37-.67.7-.27,1-1.12,2a7.81,7.81,0,0,1-7.11,2.49C131.74,746.58,131.69,745.8,130.29,745.86Z"/><path d="M253.42,732.44c.09,1.29,2.9,2.33,5.24,2.62,3.46.41,4.48-1,10.29-2.06,4.16-.76,4.12-.12,6.73-.94,3-.94,3.11-1.81,7.86-4.11,3.47-1.69,5.26-2.53,7.67-2.62,2.75-.11,3,.82,5.42.56,2.27-.24,2.9-1.14,7.11-3.37a84.17,84.17,0,0,1,7.67-3.55,44.59,44.59,0,0,0,6.92-3.18c2.95-1.75,3.34-2.56,3.37-3.18.08-1.54-1.92-2.94-3.37-3.56-.73-.31-2.42-.88-9.91.94-3.3.8-5,1.22-6.55,2.06-2.79,1.49-2.79,2.46-5.24,3.74-1.74.91-3.86,1.18-8,1.68-6.94.84-7.43.2-9.54,1.31a26.06,26.06,0,0,0-5.61,4.49c-1.67,1.77-2.08,2.73-3.37,3-2.12.43-2.85-1.82-5.24-1.68-1.93.12-1.79,1.62-5.79,3.55a18.41,18.41,0,0,0-3.18,1.69C254.58,730.7,253.36,731.55,253.42,732.44Z"/><path d="M325.11,722.2a2.79,2.79,0,0,1-3.08,2,2.57,2.57,0,0,1-1.41-.65,2.62,2.62,0,0,1-.84-2.67c.54-1.41,3-1.86,4.3-.89A2.41,2.41,0,0,1,325.11,722.2Z"/><path d="M314.4,735.57c-.61.55-2.06.12-2.52-.84a1.55,1.55,0,0,1,.23-1.78,1.79,1.79,0,0,1,2.34.75A1.58,1.58,0,0,1,314.4,735.57Z"/><path d="M301.68,738.8a2,2,0,0,1-1.45,1.63,2.2,2.2,0,0,1-1.68-.46c-.27-.18-1.3-.85-1.26-1.73a2.33,2.33,0,0,1,2.9-1.73A2.18,2.18,0,0,1,301.68,738.8Z"/><path d="M294.58,733.47a2.47,2.47,0,0,0,2-.28,2.08,2.08,0,0,0,.7-1.88,2.7,2.7,0,0,0-2.71-2,2.07,2.07,0,0,0-1.4.46,2.32,2.32,0,0,0-.14,3.09A2.48,2.48,0,0,0,294.58,733.47Z"/><path d="M292.42,736.13a1.85,1.85,0,0,1-1.82,2.11,1.78,1.78,0,0,1-.65-3.37A1.83,1.83,0,0,1,292.42,736.13Z"/><path d="M290.32,740.76a1.92,1.92,0,0,1-.79,2.11,2.21,2.21,0,0,1-2.34.09c-.13-.07-1-.56-1-1.36s1-1.59,1.92-1.73C288.76,739.76,290,739.88,290.32,740.76Z"/><path d="M337.27,692.69A2.16,2.16,0,0,0,339.8,694a2.14,2.14,0,0,0,1.31-2.15,2,2,0,1,0-3.84.84Z"/><path d="M293.92,701.57a2.33,2.33,0,1,1-4.58.75,1.89,1.89,0,0,1,.23-1.5C290.47,699.72,293.51,700.2,293.92,701.57Z"/><path d="M251.09,735.36a1.68,1.68,0,0,1-2.18-.94,1.45,1.45,0,0,1,.3-1.54,1.43,1.43,0,0,1,1.88,0,1.52,1.52,0,0,1,.32,1C251.45,734.22,251.52,735,251.09,735.36Z"/><path d="M247.44,737.49a1.29,1.29,0,0,1-.84,1.63,1.37,1.37,0,0,1-1.15-.39c-.31-.27-.79-.89-.56-1.38s1.32-.46,1.43-.45S247.21,737,247.44,737.49Z"/><path d="M236.89,740.67c.12.57,0,1.48-.61,1.75s-1.49-.42-1.56-.49c-.61-.57-1-1.66-.54-2.17s2.11-.29,2.57.51A1.13,1.13,0,0,1,236.89,740.67Z"/><path d="M125.7,733.19a2.08,2.08,0,0,1-1.78-.07c-.15-.07-1.28-.61-1.25-1.52s1.06-1.33,1.25-1.41c.65-.29,1.93-.51,2.52.28A2,2,0,0,1,125.7,733.19Z"/><path d="M137.23,729a6.73,6.73,0,0,0,2.06-1.16,2.52,2.52,0,0,0,.09-2.93c-.89-1.1-2.94-.76-4,.19a2.85,2.85,0,0,0-1,2.37,2.23,2.23,0,0,0,1.65,1.93C136.18,729.4,136.36,729.38,137.23,729Z"/><path d="M149.94,724.78a1.52,1.52,0,0,0,1.47-.55,1.63,1.63,0,0,0-.09-2.2,1.58,1.58,0,0,0-2,.07,1.45,1.45,0,0,0-.41.62A1.69,1.69,0,0,0,149.94,724.78Z"/><path d="M155.19,722.6a2.15,2.15,0,0,0,1.78-.41,2,2,0,0,0,.61-1.6,2.24,2.24,0,0,0-1.76-2.1c-1.41-.11-2.74,2.12-2.16,3.24A2.14,2.14,0,0,0,155.19,722.6Z"/><path d="M162.46,719.94a2.36,2.36,0,0,0,1.87.16,1.58,1.58,0,0,0,1-.53,1.84,1.84,0,0,0-.89-2.4,2.12,2.12,0,0,0-1.94.43,1.56,1.56,0,0,0-.83,1.09C161.61,719.39,162.36,719.87,162.46,719.94Z"/><path d="M200.11,708.63a2.17,2.17,0,0,0-.82-2.78,2.26,2.26,0,0,0-2.8.35,2.13,2.13,0,0,0-.54,1.87,2.33,2.33,0,0,0,2.27,1.48A2.23,2.23,0,0,0,200.11,708.63Z"/><path d="M202.47,706.74c.28,0,.48-.24.89-.63s.86-.82.84-1.17c0-.62-1-1.19-1.94-1.15-.61,0-1.49.37-1.66,1.06C200.37,705.8,201.64,706.88,202.47,706.74Z"/><path d="M213,701.79c.52.77,1.76.56,2,.52a1.52,1.52,0,0,0,.66-2.87,1.85,1.85,0,0,0-2.26.17,1.75,1.75,0,0,0-.49.86A1.67,1.67,0,0,0,213,701.79Z"/><path d="M219.48,699.11a1.8,1.8,0,0,0,.75.95,1.61,1.61,0,0,0,1.61.11,1.46,1.46,0,0,0,.48-1.57,1.61,1.61,0,0,0-1.59-1.16,1.42,1.42,0,0,0-1.35.86A1.2,1.2,0,0,0,219.48,699.11Z"/><path d="M229.25,693.85a1.92,1.92,0,0,0-1.09,1.27c-.16,1,.78,1.69,1.09,1.94s1.26,1,2.1.63a2.12,2.12,0,0,0,.9-2.32,2.17,2.17,0,0,0-1.18-1.62A2.14,2.14,0,0,0,229.25,693.85Z"/><path d="M244.77,689.55c.32,1.41,3,1.73,3.27,1.76a3.41,3.41,0,0,0,2.18-.25,3.17,3.17,0,0,0,1.64-3.13,2.66,2.66,0,0,0-1.06-1.88c-1.15-.75-2.65,0-3.31.3C246.44,686.86,244.46,688.23,244.77,689.55Z"/><path d="M259.45,684.9a2.37,2.37,0,0,1,.14,2.15,2.31,2.31,0,0,1-1.23,1.3,2.55,2.55,0,0,1-2.66-.82,2.23,2.23,0,0,1-.67-1.78,2.37,2.37,0,0,1,2-1.69A2.52,2.52,0,0,1,259.45,684.9Z"/><path d="M264.24,685.36a2,2,0,0,0,2.06.35,2.3,2.3,0,0,0,.37-3.92,2,2,0,0,0-2.2,0,2,2,0,0,0-.69,1.23A2.36,2.36,0,0,0,264.24,685.36Z"/><path d="M297.62,672c.41,1,2.81,1,3.53,1a4.27,4.27,0,0,0,2.38-.51c1.18-.74,2.13-2.4,1.61-3.46-.6-1.23-2.94-1.19-4.41-.66C298.87,669,297.19,670.88,297.62,672Z"/><path d="M314.19,667a2.94,2.94,0,0,0,2.48,2.43,3.71,3.71,0,0,0,2.9-1.12c.63-.52,1.7-1.4,1.54-2.48-.2-1.43-2.37-1.94-2.5-2a4,4,0,0,0-3.5,1A2.83,2.83,0,0,0,314.19,667Z"/><path d="M334.44,661c.05,1.33-1.51,2-1.7,2.11-.83.35-2.24.52-2.74-.23s.14-1.78.23-2c.61-1.07,2.11-2,3.23-1.49A1.84,1.84,0,0,1,334.44,661Z"/><path d="M337.93,660.75a2.16,2.16,0,0,0,1.87-.45,2.24,2.24,0,0,0,.86-2.08,2.35,2.35,0,0,0-3.06-1.68,2.34,2.34,0,0,0,.33,4.21Z"/><path d="M345.48,659.48c-.61.43-1.79.78-2.32.15a1.47,1.47,0,0,1,.12-1.76,1.89,1.89,0,0,1,1.71-.47c.31,0,1.15.12,1.33.64S345.88,659.2,345.48,659.48Z"/><path d="M349.5,656.89c1,1.2,2.84,1.13,3.91.84a2.15,2.15,0,0,0,1.51-.91c.45-.9-.35-2.21-1.21-2.85a3.37,3.37,0,0,0-3.72-.14,1.86,1.86,0,0,0-.49,3.06Z"/><path d="M368.18,651.16c.17,1.3-1.92,2.37-2.22,2.53a3.79,3.79,0,0,1-2.29.56,3,3,0,0,1-2.55-1.92,2,2,0,0,1,.16-1.47c.43-.71,1.6-.81,3.93-1,1.34-.1,2,0,2.43.38A1.45,1.45,0,0,1,368.18,651.16Z"/><path d="M377.07,648.33a1.92,1.92,0,0,0,2.27.54c.82-.5.71-1.7.7-1.85a2,2,0,0,0-.82-1.47,1.92,1.92,0,0,0-2.6.84A1.9,1.9,0,0,0,377.07,648.33Z"/><path d="M385.27,643.12c-.67.57-1.72,1.84-1.33,2.85s2.29,1.21,2.74,1.24c.95.06,1.65-.15,4-1.12,3.6-1.5,4-1.86,5.61-2.25,1.12-.27,1.07-.13,2.92-.54,1-.21,1.1-.27,3.88-1A13.07,13.07,0,0,0,407,640.9a3.17,3.17,0,0,0,1.45-1.52,2.18,2.18,0,0,0-.19-2.06c-.72-.79-2.28-.37-3.41-.07a18.45,18.45,0,0,0-2.86,1.21,25.51,25.51,0,0,1-3.95,1.41,38.27,38.27,0,0,1-4.25.72,25.42,25.42,0,0,0-3.28.56c-.62.16-1.1.33-2.08.66A11.25,11.25,0,0,0,385.27,643.12Z"/><path d="M413.66,634.6a2.63,2.63,0,0,0-.2,3.31,2.66,2.66,0,0,0,2.58,1.18,2.86,2.86,0,0,0,2-1.72c.14-.27.77-1.55.18-2.37-.38-.52-1.08-.56-2.39-.64C414.66,634.29,414.1,634.26,413.66,634.6Z"/><path d="M431.16,632.21c-.21.79-.91,1.29-2.31,2.27a8.88,8.88,0,0,1-3.55,1.87c-.8.16-2.68.53-3.53-.53s-.26-2.52.28-3.4,1.6-1.38,3.56-2.18c2.47-1,3.71-1.51,4.61-.9A2.76,2.76,0,0,1,431.16,632.21Z"/><path d="M436.49,628c-.1.17-1.21,2.16-.41,3.3s3,.76,6.36.19a35.93,35.93,0,0,0,6-1.65,12.53,12.53,0,0,0,4.21-2.06c.9-.73,2.13-1.72,2-2.84-.21-1.38-2.43-2-2.71-2.06-1.3-.33-2.18,0-4.77.63-4.47,1.14-4.22.85-5.86,1.46C438.86,625.85,437.37,626.43,436.49,628Z"/><path d="M472.56,619.78a2.54,2.54,0,0,1-2.2,2.67,2.42,2.42,0,1,1,.89-4.49A2.33,2.33,0,0,1,472.56,619.78Z"/><path d="M494.59,613.24a2.28,2.28,0,0,1-.33,3.18,2.22,2.22,0,0,1-2.71,0,2.16,2.16,0,0,1-.61-2.62,2.38,2.38,0,0,1,2.06-1A2.14,2.14,0,0,1,494.59,613.24Z"/><path d="M508.15,609.35c.64,1.34,2.78,1.69,4.21.94A3,3,0,0,0,514,608a2.89,2.89,0,0,0-2.48-2.81,3.34,3.34,0,0,0-3,1.64A2.87,2.87,0,0,0,508.15,609.35Z"/><path d="M524.44,604.68a1.94,1.94,0,0,1-.44,2.06c-.75.51-1.94-.18-2.53-.82-.38-.41-1-1.36-.65-2s2-.89,2.87-.25A2.1,2.1,0,0,1,524.44,604.68Z"/><path d="M592,778.74V716.63h8.43L633,765.39V716.63h7.88v62.11h-8.43l-32.62-48.81v48.81Z"/><path d="M683.08,773.19a28.55,28.55,0,0,1-8.16,5.08,23.54,23.54,0,0,1-8.41,1.48q-7.41,0-11.39-3.62a11.93,11.93,0,0,1-4-9.25,12.22,12.22,0,0,1,1.51-6,12.47,12.47,0,0,1,3.94-4.39,18.65,18.65,0,0,1,5.48-2.5,56.49,56.49,0,0,1,6.78-1.14,69.06,69.06,0,0,0,13.6-2.63c0-1,0-1.7,0-2q0-4.65-2.16-6.56-2.93-2.6-8.68-2.59-5.39,0-7.95,1.89c-1.7,1.25-3,3.48-3.79,6.67l-7.45-1a18.58,18.58,0,0,1,3.34-7.73,14.73,14.73,0,0,1,6.74-4.53,30,30,0,0,1,10.21-1.59,26.85,26.85,0,0,1,9.36,1.36,12.32,12.32,0,0,1,5.3,3.41,12,12,0,0,1,2.37,5.19,43.44,43.44,0,0,1,.38,7v10.16q0,10.64.49,13.46a16.67,16.67,0,0,0,1.93,5.4h-8A16,16,0,0,1,683.08,773.19Zm-.64-17A55.94,55.94,0,0,1,670,759a29.08,29.08,0,0,0-6.66,1.52,6.64,6.64,0,0,0-3,2.48,6.74,6.74,0,0,0,1.25,8.71q2.31,2,6.75,2a15.68,15.68,0,0,0,7.84-1.93,11.81,11.81,0,0,0,5-5.27,18.42,18.42,0,0,0,1.23-7.63Z"/><path d="M718.62,771.92l1.1,6.73a28.49,28.49,0,0,1-5.76.68,13.12,13.12,0,0,1-6.44-1.31,7.34,7.34,0,0,1-3.22-3.46q-.93-2.13-.93-9V739.68h-5.59v-5.93h5.59V722.61L711,718v15.72h7.67v5.93H711V766a13.25,13.25,0,0,0,.4,4.19,3.15,3.15,0,0,0,1.32,1.48,5,5,0,0,0,2.6.55A26,26,0,0,0,718.62,771.92Z"/><path d="M726.12,725.4v-8.77h7.62v8.77Zm0,53.34v-45h7.62v45Z"/><path d="M742.51,756.24q0-12.5,7-18.51a20.94,20.94,0,0,1,14.15-5q9.27,0,15.16,6.08t5.89,16.8q0,8.68-2.6,13.66a18.48,18.48,0,0,1-7.59,7.73,22,22,0,0,1-10.86,2.75q-9.45,0-15.27-6T742.51,756.24Zm7.84,0q0,8.64,3.77,12.94a12.56,12.56,0,0,0,18.94,0q3.77-4.32,3.77-13.17,0-8.36-3.8-12.65a12.56,12.56,0,0,0-18.91,0Q750.34,747.59,750.35,756.24Z"/><path d="M793.6,778.74v-45h6.86v6.39q5-7.41,14.32-7.41a18.87,18.87,0,0,1,7.48,1.46,11.76,11.76,0,0,1,5.1,3.84,14.85,14.85,0,0,1,2.38,5.63,44,44,0,0,1,.42,7.41v27.67h-7.62V751.37a20.62,20.62,0,0,0-.89-7,7.33,7.33,0,0,0-3.16-3.68,10,10,0,0,0-5.32-1.38,12.38,12.38,0,0,0-8.41,3.09q-3.53,3.09-3.53,11.74v24.57Z"/><path d="M871.21,773.19a28.38,28.38,0,0,1-8.15,5.08,23.58,23.58,0,0,1-8.41,1.48c-4.95,0-8.74-1.2-11.4-3.62a12,12,0,0,1-4-9.25,12.32,12.32,0,0,1,1.5-6,12.67,12.67,0,0,1,3.94-4.39,18.83,18.83,0,0,1,5.49-2.5,56.13,56.13,0,0,1,6.78-1.14,69.22,69.22,0,0,0,13.6-2.63c0-1,0-1.7,0-2q0-4.65-2.16-6.56-2.93-2.6-8.69-2.59-5.37,0-7.94,1.89c-1.71,1.25-3,3.48-3.79,6.67l-7.46-1a18.59,18.59,0,0,1,3.35-7.73,14.68,14.68,0,0,1,6.74-4.53,29.93,29.93,0,0,1,10.2-1.59,26.91,26.91,0,0,1,9.37,1.36,12.28,12.28,0,0,1,5.29,3.41,12,12,0,0,1,2.37,5.19,42,42,0,0,1,.39,7v10.16a109.73,109.73,0,0,0,.48,13.46,17.15,17.15,0,0,0,1.93,5.4h-8A16,16,0,0,1,871.21,773.19Zm-.63-17A55.92,55.92,0,0,1,858.12,759a29.1,29.1,0,0,0-6.65,1.52,6.67,6.67,0,0,0-3,2.48,6.58,6.58,0,0,0-1.06,3.62,6.5,6.5,0,0,0,2.31,5.09q2.31,2,6.76,2a15.68,15.68,0,0,0,7.84-1.93,11.91,11.91,0,0,0,5-5.27,18.42,18.42,0,0,0,1.23-7.63Z"/><path d="M889.94,778.74V716.63h7.62v62.11Z"/><path d="M978.77,757,987,759q-2.58,10.13-9.3,15.44a25.66,25.66,0,0,1-16.42,5.32q-10,0-16.33-4.09a25.56,25.56,0,0,1-9.57-11.84,42.24,42.24,0,0,1-3.28-16.65,36.64,36.64,0,0,1,3.7-16.93,25.43,25.43,0,0,1,10.55-11,30.81,30.81,0,0,1,15.06-3.75q9.32,0,15.68,4.75a24.68,24.68,0,0,1,8.85,13.34l-8.09,1.91q-2.16-6.78-6.27-9.87a16.73,16.73,0,0,0-10.34-3.09,20.08,20.08,0,0,0-12,3.43,18.12,18.12,0,0,0-6.75,9.21,37.1,37.1,0,0,0-2,11.93A37.88,37.88,0,0,0,942.87,761a17.19,17.19,0,0,0,7.18,8.83,20.12,20.12,0,0,0,10.55,2.92,17.64,17.64,0,0,0,11.69-4Q977.08,764.81,978.77,757Z"/><path d="M1026.94,764.25l7.88,1a19.25,19.25,0,0,1-6.91,10.72q-5,3.81-12.88,3.81-9.87,0-15.65-6.08t-5.78-17q0-11.34,5.84-17.62t15.17-6.27a19.23,19.23,0,0,1,14.74,6.14q5.73,6.15,5.72,17.29c0,.45,0,1.13,0,2h-33.55q.42,7.41,4.19,11.35a12.49,12.49,0,0,0,9.41,3.94,11.68,11.68,0,0,0,7.16-2.2A14.68,14.68,0,0,0,1026.94,764.25Zm-25-12.33H1027q-.51-5.67-2.88-8.51a11.68,11.68,0,0,0-9.44-4.41,12.1,12.1,0,0,0-8.84,3.52A14,14,0,0,0,1001.9,751.92Z"/><path d="M1044.39,778.74v-45h6.86v6.39q5-7.41,14.32-7.41a18.87,18.87,0,0,1,7.48,1.46,11.85,11.85,0,0,1,5.11,3.84,14.84,14.84,0,0,1,2.37,5.63,44,44,0,0,1,.42,7.41v27.67h-7.62V751.37a20.62,20.62,0,0,0-.89-7,7.33,7.33,0,0,0-3.16-3.68,10,10,0,0,0-5.32-1.38,12.38,12.38,0,0,0-8.41,3.09q-3.52,3.09-3.53,11.74v24.57Z"/><path d="M1109.29,771.92l1.1,6.73a28.33,28.33,0,0,1-5.76.68,13.12,13.12,0,0,1-6.44-1.31,7.39,7.39,0,0,1-3.22-3.46q-.93-2.13-.93-9V739.68h-5.59v-5.93H1094V722.61l7.58-4.58v15.72h7.67v5.93h-7.67V766a13.14,13.14,0,0,0,.41,4.19,3.08,3.08,0,0,0,1.31,1.48,5,5,0,0,0,2.61.55A25.9,25.9,0,0,0,1109.29,771.92Z"/><path d="M1116.66,778.74v-45h6.87v6.82c1.75-3.19,3.36-5.3,4.85-6.31a8.43,8.43,0,0,1,4.89-1.53,14.88,14.88,0,0,1,7.84,2.46l-2.63,7.07a10.91,10.91,0,0,0-5.59-1.65,7.27,7.27,0,0,0-4.49,1.5,8.15,8.15,0,0,0-2.84,4.18,29.57,29.57,0,0,0-1.27,8.89v23.56Z"/><path d="M1176.44,764.25l7.88,1a19.25,19.25,0,0,1-6.91,10.72q-5,3.81-12.88,3.81-9.87,0-15.65-6.08t-5.78-17q0-11.34,5.84-17.62t15.17-6.27a19.23,19.23,0,0,1,14.74,6.14q5.72,6.15,5.72,17.29c0,.45,0,1.13,0,2H1151q.42,7.41,4.19,11.35a12.49,12.49,0,0,0,9.41,3.94,11.68,11.68,0,0,0,7.16-2.2A14.68,14.68,0,0,0,1176.44,764.25Zm-25-12.33h25.12q-.51-5.67-2.88-8.51a11.69,11.69,0,0,0-9.45-4.41,12.1,12.1,0,0,0-8.83,3.52A14,14,0,0,0,1151.4,751.92Z"/><path d="M1219.82,778.74V739.68h-6.74v-5.93h6.74V729a21.22,21.22,0,0,1,.8-6.74,9.81,9.81,0,0,1,3.88-4.8q2.77-1.84,7.77-1.85a37.26,37.26,0,0,1,7.12.77l-1.14,6.65a26,26,0,0,0-4.5-.43q-3.46,0-4.91,1.49c-1,1-1.44,2.83-1.44,5.55v4.15h8.77v5.93h-8.77v39.06Z"/><path d="M1239.26,756.24q0-12.5,7-18.51a21,21,0,0,1,14.15-5q9.27,0,15.17,6.08t5.88,16.8q0,8.68-2.6,13.66a18.48,18.48,0,0,1-7.59,7.73,22,22,0,0,1-10.86,2.75q-9.45,0-15.27-6T1239.26,756.24Zm7.84,0q0,8.64,3.77,12.94a12.56,12.56,0,0,0,18.94,0q3.76-4.32,3.77-13.17,0-8.36-3.8-12.65a12.56,12.56,0,0,0-18.91,0Q1247.11,747.59,1247.1,756.24Z"/><path d="M1290.27,778.74v-45h6.86v6.82c1.75-3.19,3.37-5.3,4.85-6.31a8.43,8.43,0,0,1,4.89-1.53,14.88,14.88,0,0,1,7.84,2.46l-2.63,7.07a10.89,10.89,0,0,0-5.59-1.65,7.27,7.27,0,0,0-4.49,1.5,8.21,8.21,0,0,0-2.84,4.18,29.89,29.89,0,0,0-1.27,8.89v23.56Z"/><path d="M0,815.49H39.64q13.41,0,20.44,2.06a35.82,35.82,0,0,1,16.19,9.89,46.93,46.93,0,0,1,10.26,17.4Q90,855.13,90,870.22q0,13.26-3.29,22.86-4,11.73-11.51,19Q69.6,917.55,60,920.63q-7.18,2.26-19.2,2.27H0Zm21.69,18.17V904.8H37.88c6,0,10.43-.34,13.11-1a20,20,0,0,0,8.76-4.47q3.48-3.15,5.68-10.37t2.19-19.67q0-12.45-2.19-19.12a24.65,24.65,0,0,0-6.16-10.41,20.65,20.65,0,0,0-10-5q-4.55-1-17.81-1Z"/><path d="M103.53,882.9a42.1,42.1,0,0,1,5-19.86,34.72,34.72,0,0,1,14.32-14.65,42.52,42.52,0,0,1,20.7-5.06q17.66,0,28.94,11.47t11.29,29q0,17.65-11.4,29.27t-28.68,11.61a45.16,45.16,0,0,1-20.41-4.84,33.18,33.18,0,0,1-14.76-14.17Q103.53,896.31,103.53,882.9Zm21.1,1.1q0,11.58,5.49,17.73a18,18,0,0,0,27.07,0q5.46-6.15,5.46-17.88,0-11.43-5.46-17.58a17.95,17.95,0,0,0-27.07,0Q124.63,872.42,124.63,884Z"/><path d="M198.41,845.09h19v10.63q10.19-12.39,24.25-12.39a26.11,26.11,0,0,1,13,3.08,23.65,23.65,0,0,1,9,9.31,36,36,0,0,1,11.07-9.31,27.14,27.14,0,0,1,12.67-3.08,28.34,28.34,0,0,1,14.51,3.48A21.34,21.34,0,0,1,310.72,857q2.13,5,2.13,16.12V922.9H292.26V878.43q0-11.58-2.12-14.95-2.86-4.4-8.8-4.39a14.08,14.08,0,0,0-8.13,2.63,14.63,14.63,0,0,0-5.49,7.73q-1.7,5.1-1.69,16.09V922.9H245.44V880.26q0-11.35-1.1-14.65a9.3,9.3,0,0,0-3.4-4.91,10.75,10.75,0,0,0-6.27-1.61,15,15,0,0,0-8.57,2.56,14.09,14.09,0,0,0-5.46,7.4c-1.1,3.23-1.65,8.57-1.65,16.05v37.8H198.41Z"/><path d="M378.42,898.14l20.52,3.44q-4,11.28-12.5,17.18t-21.35,5.9q-20.29,0-30-13.26-7.69-10.62-7.7-26.82,0-19.33,10.12-30.29t25.57-11q17.35,0,27.4,11.47T400,889.93H348.46q.21,9.17,5,14.25a15.55,15.55,0,0,0,11.87,5.09,12.6,12.6,0,0,0,8.13-2.63Q376.74,904,378.42,898.14Zm1.17-20.81q-.21-8.94-4.61-13.59a14.87,14.87,0,0,0-21.84.26q-4.39,4.9-4.32,13.33Z"/><path d="M409.56,900.7l20.66-3.15a15.09,15.09,0,0,0,5.35,9.12c2.68,2.08,6.45,3.12,11.28,3.12q8,0,12-2.93a6.57,6.57,0,0,0,2.71-5.5,5.38,5.38,0,0,0-1.47-3.88c-1-1-3.32-1.88-6.88-2.71q-24.92-5.5-31.58-10a20,20,0,0,1-9.23-17.51,21.59,21.59,0,0,1,8-17q8-6.88,24.77-6.89,16,0,23.74,5.21t10.69,15.38l-19.41,3.59a12,12,0,0,0-4.73-7q-3.48-2.41-9.93-2.42-8.13,0-11.65,2.28a4.86,4.86,0,0,0-2.34,4.17,4.55,4.55,0,0,0,2,3.74q2.79,2.05,19.23,5.79t23,9.15q6.45,5.5,6.45,15.32,0,10.7-8.94,18.39t-26.45,7.69q-15.9,0-25.16-6.45A29.68,29.68,0,0,1,409.56,900.7Z"/><path d="M535.94,845.09v16.42H521.88v31.35q0,9.52.4,11.1a4.52,4.52,0,0,0,1.83,2.6,5.76,5.76,0,0,0,3.48,1,26.56,26.56,0,0,0,8.28-2l1.76,16a41,41,0,0,1-16.27,3.08,25.69,25.69,0,0,1-10-1.87,14.66,14.66,0,0,1-6.56-4.83,19.06,19.06,0,0,1-2.89-8q-.66-3.58-.66-14.5V861.51h-9.46V845.09h9.46V829.63l20.66-12v27.47Z"/><path d="M550.23,834.54v-19h20.59v19Zm0,88.36V845.09h20.59V922.9Z"/><path d="M659.76,868.1l-20.29,3.66q-1-6.07-4.65-9.16a14.07,14.07,0,0,0-9.42-3.07,15.38,15.38,0,0,0-12.27,5.31q-4.57,5.31-4.58,17.77,0,13.85,4.65,19.56a15.29,15.29,0,0,0,12.5,5.71,13.88,13.88,0,0,0,9.59-3.33q3.74-3.33,5.28-11.47l20.22,3.45q-3.15,13.92-12.09,21t-24,7.11q-17.07,0-27.22-10.77t-10.14-29.82q0-19.27,10.18-30t27.55-10.74q14.21,0,22.6,6.12T659.76,868.1Z"/><path d="M744.61,922.9,706.22,815.49h23.51L756.92,895l26.3-79.5h23L767.76,922.9Z"/><path d="M814.43,834.54v-19H835v19Zm0,88.36V845.09H835V922.9Z"/><path d="M851.36,882.9a42.1,42.1,0,0,1,5-19.86,34.69,34.69,0,0,1,14.33-14.65,42.46,42.46,0,0,1,20.69-5.06q17.66,0,28.94,11.47t11.29,29q0,17.65-11.4,29.27t-28.68,11.61a45.16,45.16,0,0,1-20.41-4.84,33.18,33.18,0,0,1-14.76-14.17Q851.36,896.31,851.36,882.9Zm21.1,1.1q0,11.58,5.49,17.73a18,18,0,0,0,27.07,0q5.46-6.15,5.46-17.88,0-11.43-5.46-17.58a17.95,17.95,0,0,0-27.07,0Q872.46,872.42,872.46,884Z"/><path d="M947.77,922.9V815.49h20.59V922.9Z"/><path d="M1034.52,898.14l20.52,3.44q-4,11.28-12.49,17.18t-21.36,5.9q-20.3,0-30-13.26-7.7-10.62-7.69-26.82,0-19.33,10.11-30.29t25.57-11q17.36,0,27.4,11.47t9.6,35.13h-51.58q.21,9.17,5,14.25a15.55,15.55,0,0,0,11.87,5.09,12.6,12.6,0,0,0,8.13-2.63Q1032.84,904,1034.52,898.14Zm1.18-20.81q-.23-8.94-4.62-13.59a14.85,14.85,0,0,0-21.83.26q-4.41,4.9-4.33,13.33Z"/><path d="M1143.69,922.9H1123.1V883.19q0-12.6-1.32-16.3a11.41,11.41,0,0,0-4.28-5.75,12.24,12.24,0,0,0-7.15-2,16.44,16.44,0,0,0-9.59,2.93,14.72,14.72,0,0,0-5.83,7.76q-1.58,4.85-1.57,17.88V922.9h-20.59V845.09h19.12v11.43q10.18-13.18,25.64-13.19a30.82,30.82,0,0,1,12.46,2.46,20.89,20.89,0,0,1,8.53,6.26,22.56,22.56,0,0,1,4,8.65,64.06,64.06,0,0,1,1.14,13.85Z"/><path d="M1232.42,868.1l-20.3,3.66q-1-6.07-4.65-9.16a14.07,14.07,0,0,0-9.42-3.07,15.38,15.38,0,0,0-12.27,5.31q-4.58,5.31-4.58,17.77,0,13.85,4.65,19.56a15.29,15.29,0,0,0,12.5,5.71,13.88,13.88,0,0,0,9.59-3.33c2.5-2.22,4.25-6,5.28-11.47l20.22,3.45q-3.15,13.92-12.09,21t-24,7.11q-17.07,0-27.21-10.77T1160,884.07q0-19.27,10.18-30t27.55-10.74q14.22,0,22.6,6.12T1232.42,868.1Z"/><path d="M1293.08,898.14l20.51,3.44q-3.94,11.28-12.49,17.18t-21.36,5.9q-20.29,0-30-13.26-7.68-10.62-7.69-26.82,0-19.33,10.11-30.29t25.57-11q17.37,0,27.4,11.47t9.6,35.13h-51.58q.23,9.17,5,14.25a15.55,15.55,0,0,0,11.87,5.09,12.6,12.6,0,0,0,8.13-2.63Q1291.4,904,1293.08,898.14Zm1.17-20.81q-.21-8.94-4.61-13.59a14.87,14.87,0,0,0-21.84.26q-4.4,4.9-4.32,13.33Z"/><path d="M15.77,1002.24l-6.9,20.89H0l22.57-66.42H32.92l22.67,66.42H46.42l-7.1-20.89Zm21.78-6.7L31,976.42c-1.47-4.34-2.46-8.28-3.44-12.12h-.2c-1,3.94-2.07,8-3.35,12l-6.51,19.22Z"/><path d="M132.65,1021c-3.15,1.57-9.46,3.15-17.54,3.15-18.72,0-32.82-11.83-32.82-33.61,0-20.79,14.1-34.88,34.69-34.88,8.28,0,13.51,1.77,15.77,3l-2.07,7a31.16,31.16,0,0,0-13.4-2.76c-15.57,0-25.92,9.95-25.92,27.4,0,16.26,9.36,26.71,25.53,26.71a34.4,34.4,0,0,0,14-2.76Z"/><path d="M185.18,998.89c0,17.64-12.22,25.33-23.75,25.33-12.91,0-22.86-9.46-22.86-24.54,0-16,10.44-25.33,23.65-25.33C175.92,974.35,185.18,984.3,185.18,998.89Zm-37.84.49c0,10.45,6,18.33,14.49,18.33,8.28,0,14.48-7.78,14.48-18.52,0-8.09-4-18.33-14.29-18.33S147.34,990.32,147.34,999.38Z"/><path d="M196.12,988.35c0-4.93-.1-9-.39-12.92h7.59l.39,7.69h.3c2.66-4.53,7.09-8.77,15-8.77a14.1,14.1,0,0,1,13.5,9.56h.2A19.71,19.71,0,0,1,238,977.7a16.26,16.26,0,0,1,10.54-3.35c6.31,0,15.67,4.14,15.67,20.7v28.08h-8.47v-27c0-9.17-3.35-14.68-10.35-14.68-4.93,0-8.77,3.64-10.25,7.88a14.41,14.41,0,0,0-.69,4.34v29.46H226V994.55c0-7.59-3.36-13.1-10-13.1-5.42,0-9.36,4.33-10.74,8.67a12,12,0,0,0-.69,4.24v28.77h-8.48Z"/><path d="M278.32,988.35c0-4.93-.1-9-.4-12.92h7.59l.4,7.69h.29c2.66-4.53,7.1-8.77,15-8.77a14.1,14.1,0,0,1,13.51,9.56h.19a19.71,19.71,0,0,1,5.32-6.21,16.29,16.29,0,0,1,10.55-3.35c6.31,0,15.67,4.14,15.67,20.7v28.08h-8.48v-27c0-9.17-3.35-14.68-10.34-14.68-4.93,0-8.77,3.64-10.25,7.88a14.1,14.1,0,0,0-.69,4.34v29.46h-8.48V994.55c0-7.59-3.35-13.1-9.95-13.1-5.42,0-9.37,4.33-10.75,8.67a12,12,0,0,0-.69,4.24v28.77h-8.47Z"/><path d="M400.43,1010.13c0,4.92.1,9.26.39,13h-7.69l-.49-7.78h-.19a18,18,0,0,1-15.77,8.87c-7.49,0-16.46-4.14-16.46-20.89v-27.9h8.67v26.42c0,9.06,2.76,15.18,10.65,15.18a12.55,12.55,0,0,0,11.43-7.89,12.74,12.74,0,0,0,.79-4.43V975.43h8.67Z"/><path d="M414.82,988.35c0-4.93-.1-9-.4-12.92h7.69l.49,7.89h.2a17.55,17.55,0,0,1,15.77-9c6.6,0,16.85,3.94,16.85,20.3v28.48h-8.67V995.64c0-7.69-2.86-14.1-11-14.1a12.33,12.33,0,0,0-11.63,8.87,12.67,12.67,0,0,0-.59,4.05v28.67h-8.67Z"/><path d="M479.17,962c.1,3-2.07,5.32-5.52,5.32a5.15,5.15,0,0,1-5.22-5.32,5.29,5.29,0,0,1,5.42-5.42A5.15,5.15,0,0,1,479.17,962Zm-9.66,61.1v-47.7h8.68v47.7Z"/><path d="M503,961.73v13.7h12.42V982H503v25.72c0,5.91,1.68,9.27,6.51,9.27a19,19,0,0,0,5-.6l.4,6.51a21.28,21.28,0,0,1-7.69,1.18c-4,0-7.29-1.28-9.36-3.65-2.47-2.56-3.35-6.8-3.35-12.41V982h-7.39v-6.61h7.39V964Z"/><path d="M529.24,975.43l10.44,28.19c1.09,3.15,2.27,6.9,3.06,9.76h.2c.88-2.86,1.87-6.51,3-10l9.46-28h9.17l-13,34c-6.21,16.36-10.45,24.73-16.36,29.86a23.64,23.64,0,0,1-10.65,5.62l-2.16-7.3a23.21,23.21,0,0,0,7.59-4.23,26.45,26.45,0,0,0,7.29-9.66,6.37,6.37,0,0,0,.69-2.07,7.61,7.61,0,0,0-.59-2.27l-17.64-44Z"/><path d="M602.26,956.71v66.42h-8.57V956.71Z"/><path d="M617.93,988.35c0-4.93-.1-9-.39-12.92h7.68l.5,7.89h.2a17.53,17.53,0,0,1,15.76-9c6.61,0,16.86,3.94,16.86,20.3v28.48h-8.67V995.64c0-7.69-2.86-14.1-11-14.1a12.71,12.71,0,0,0-12.22,12.92v28.67h-8.68Z"/><path d="M682.68,961.73v13.7H695.1V982H682.68v25.72c0,5.91,1.68,9.27,6.51,9.27a19,19,0,0,0,5-.6l.4,6.51a21.28,21.28,0,0,1-7.69,1.18c-4,0-7.29-1.28-9.36-3.65-2.47-2.56-3.35-6.8-3.35-12.41V982h-7.39v-6.61h7.39V964Z"/><path d="M709.1,1000.86c.19,11.73,7.68,16.56,16.36,16.56a31.52,31.52,0,0,0,13.2-2.46l1.48,6.2a38.65,38.65,0,0,1-15.87,3c-14.68,0-23.45-9.66-23.45-24s8.47-25.72,22.37-25.72c15.57,0,19.71,13.7,19.71,22.47a32.18,32.18,0,0,1-.3,4Zm25.42-6.21c.1-5.52-2.26-14.09-12-14.09-8.77,0-12.62,8.08-13.31,14.09Z"/><path d="M753.64,990.32c0-5.62-.1-10.45-.39-14.89h7.59l.29,9.37h.4c2.16-6.41,7.39-10.45,13.2-10.45a9.28,9.28,0,0,1,2.47.3v8.18a12.91,12.91,0,0,0-3-.3c-6.11,0-10.45,4.63-11.63,11.14a24.07,24.07,0,0,0-.39,4v25.42h-8.58Z"/><path d="M789.71,1000.86c.2,11.73,7.69,16.56,16.36,16.56a31.53,31.53,0,0,0,13.21-2.46l1.48,6.2a38.65,38.65,0,0,1-15.87,3c-14.68,0-23.45-9.66-23.45-24s8.47-25.72,22.37-25.72c15.57,0,19.71,13.7,19.71,22.47a32.18,32.18,0,0,1-.3,4Zm25.43-6.21c.1-5.52-2.27-14.09-12-14.09-8.77,0-12.62,8.08-13.31,14.09Z"/><path d="M833.08,1014.26a22.66,22.66,0,0,0,11.43,3.45c6.31,0,9.26-3.15,9.26-7.09,0-4.14-2.46-6.41-8.87-8.77-8.57-3.06-12.61-7.79-12.61-13.5,0-7.69,6.21-14,16.46-14a23.78,23.78,0,0,1,11.73,3l-2.17,6.3a18.59,18.59,0,0,0-9.76-2.75c-5.12,0-8,2.95-8,6.5,0,3.94,2.86,5.72,9.06,8.08,8.28,3.16,12.52,7.29,12.52,14.39,0,8.38-6.5,14.29-17.84,14.29a27.21,27.21,0,0,1-13.4-3.25Z"/><path d="M883.73,961.73v13.7h12.42V982H883.73v25.72c0,5.91,1.68,9.27,6.51,9.27a18.93,18.93,0,0,0,5-.6l.4,6.51a21.28,21.28,0,0,1-7.69,1.18c-4,0-7.29-1.28-9.36-3.65-2.47-2.56-3.35-6.8-3.35-12.41V982h-7.39v-6.61h7.39V964Z"/><path d="M973.52,1021c-3.16,1.57-9.47,3.15-17.55,3.15-18.72,0-32.82-11.83-32.82-33.61,0-20.79,14.1-34.88,34.7-34.88,8.27,0,13.5,1.77,15.76,3l-2.07,7a31.16,31.16,0,0,0-13.4-2.76c-15.57,0-25.92,9.95-25.92,27.4,0,16.26,9.36,26.71,25.53,26.71a34.4,34.4,0,0,0,14-2.76Z"/><path d="M1026,998.89c0,17.64-12.22,25.33-23.75,25.33-12.91,0-22.86-9.46-22.86-24.54,0-16,10.45-25.33,23.65-25.33C1016.78,974.35,1026,984.3,1026,998.89Zm-37.84.49c0,10.45,6,18.33,14.49,18.33,8.28,0,14.49-7.78,14.49-18.52,0-8.09-4-18.33-14.3-18.33S988.2,990.32,988.2,999.38Z"/><path d="M1037,988.35c0-4.93-.09-9-.39-12.92h7.59l.39,7.69h.3c2.66-4.53,7.1-8.77,15-8.77a14.1,14.1,0,0,1,13.5,9.56h.2a19.71,19.71,0,0,1,5.32-6.21,16.27,16.27,0,0,1,10.55-3.35c6.3,0,15.67,4.14,15.67,20.7v28.08h-8.48v-27c0-9.17-3.35-14.68-10.35-14.68-4.93,0-8.77,3.64-10.25,7.88a14.41,14.41,0,0,0-.69,4.34v29.46h-8.47V994.55c0-7.59-3.35-13.1-10-13.1-5.42,0-9.36,4.33-10.74,8.67a12,12,0,0,0-.69,4.24v28.77H1037Z"/><path d="M1119.18,991c0-6.11-.2-11-.4-15.58h7.79l.4,8.18h.19c3.55-5.81,9.17-9.26,16.95-9.26,11.54,0,20.21,9.76,20.21,24.25,0,17.14-10.45,25.62-21.68,25.62-6.31,0-11.83-2.76-14.69-7.49h-.2v25.92h-8.57Zm8.57,12.71a19.35,19.35,0,0,0,.4,3.55,13.38,13.38,0,0,0,13,10.15c9.16,0,14.49-7.49,14.49-18.43,0-9.56-5-17.74-14.2-17.74a15.07,15.07,0,0,0-13.7,14.29Z"/><path d="M1201.67,1023.13l-.69-6h-.3a17.74,17.74,0,0,1-14.58,7.1c-9.66,0-14.59-6.8-14.59-13.7,0-11.53,10.25-17.84,28.68-17.74v-1c0-3.95-1.08-11-10.84-11a23.83,23.83,0,0,0-12.42,3.54l-2-5.71a29.62,29.62,0,0,1,15.67-4.24c14.59,0,18.13,9.95,18.13,19.51v17.84a67.24,67.24,0,0,0,.79,11.43Zm-1.28-24.34c-9.46-.19-20.21,1.48-20.21,10.74,0,5.62,3.75,8.28,8.18,8.28a11.85,11.85,0,0,0,11.53-8,8.94,8.94,0,0,0,.5-2.76Z"/><path d="M1222.76,988.35c0-4.93-.1-9-.4-12.92h7.69l.5,7.89h.19a17.56,17.56,0,0,1,15.77-9c6.6,0,16.85,3.94,16.85,20.3v28.48h-8.67V995.64c0-7.69-2.86-14.1-11-14.1a12.34,12.34,0,0,0-11.63,8.87,12.67,12.67,0,0,0-.59,4.05v28.67h-8.67Z"/><path d="M1279.33,975.43l10.45,28.19c1.08,3.15,2.26,6.9,3,9.76h.2c.89-2.86,1.87-6.51,3-10l9.47-28h9.16l-13,34c-6.21,16.36-10.44,24.73-16.36,29.86a23.62,23.62,0,0,1-10.64,5.62l-2.17-7.3a23,23,0,0,0,7.59-4.23,26.45,26.45,0,0,0,7.29-9.66,6.13,6.13,0,0,0,.69-2.07,7.61,7.61,0,0,0-.59-2.27l-17.64-44Z"/></g></g></svg>